<?xml version="1.0" encoding="utf-8"?>
<!-- Generator: Adobe Illustrator 19.2.1, SVG Export Plug-In . SVG Version: 6.00 Build 0)  -->
<svg version="1.1" id="Layer_1" xmlns="http://www.w3.org/2000/svg" xmlns:xlink="http://www.w3.org/1999/xlink" x="0px" y="0px"
	 viewBox="0 0 55 40" style="enable-background:new 0 0 55 40;" xml:space="preserve">
<style type="text/css">
	.st0{fill:#FFFFFF;}
</style>
<g>
	<path class="st0" d="M17.4,3.2l1.2,2.6c-0.5,0.4-0.9,0.7-1.4,1c-0.5,0.3-0.9,0.6-1.2,0.9c-3.5,2.7-5.8,5.2-7,7.5
		c-1.2,2.3-1.7,4.1-1.7,5.3c0,0.6,0.2,1.1,0.6,1.4c0.4,0.3,0.8,0.5,1.3,0.5c0.2,0,0.4,0,0.6-0.1c0.2,0,0.4-0.1,0.7-0.2
		c0.2-0.1,0.5-0.2,0.8-0.2c0.4,0,0.8-0.1,1.2-0.1c0.4,0,0.8,0,1.2,0.1c0.4,0,0.8,0.1,1.3,0.2c1.5,0.3,2.9,0.9,4.1,1.9
		c1.3,1,1.9,2.6,1.9,4.7c0,2.4-0.6,4.2-1.9,5.4c-1.2,1.2-2.6,2-4.1,2.3c-0.4,0.1-0.7,0.2-1,0.2c-0.3,0-0.7,0.1-1,0.1
		c-0.6,0-1.3-0.1-2.2-0.3c-0.9-0.2-1.8-0.5-2.8-1c-1.6-0.7-3-2-4.3-3.9c-1.3-1.8-1.9-4.6-1.9-8.1c0-3,0.9-5.9,2.6-8.6
		c1.7-2.7,3.7-5,5.8-7c1.4-1.2,2.7-2.2,3.9-3c1.2-0.8,2.3-1.4,3.1-1.7V3.2z M49.4,3.2l1.2,2.6c-0.5,0.4-0.9,0.7-1.4,1
		c-0.5,0.3-0.9,0.6-1.2,0.9c-3.5,2.7-5.8,5.2-7,7.5c-1.2,2.3-1.7,4.1-1.7,5.3c0,0.6,0.2,1.1,0.6,1.4c0.4,0.3,0.8,0.5,1.3,0.5
		c0.2,0,0.4,0,0.6-0.1c0.2,0,0.4-0.1,0.7-0.2c0.2-0.1,0.5-0.2,0.8-0.2c0.4,0,0.8-0.1,1.2-0.1c0.4,0,0.8,0,1.2,0.1
		c0.4,0,0.8,0.1,1.3,0.2c1.5,0.3,2.9,0.9,4.1,1.9c1.3,1,1.9,2.6,1.9,4.7c0,2.4-0.6,4.2-1.9,5.4c-1.2,1.2-2.6,2-4.1,2.3
		c-0.4,0.1-0.7,0.2-1,0.2c-0.3,0-0.7,0.1-1,0.1c-0.6,0-1.3-0.1-2.2-0.3c-0.9-0.2-1.8-0.5-2.8-1c-1.6-0.7-3-2-4.3-3.9
		c-1.3-1.8-1.9-4.6-1.9-8.1c0-3,0.9-5.9,2.6-8.6c1.7-2.7,3.7-5,5.8-7c1.4-1.2,2.7-2.2,3.9-3c1.2-0.8,2.3-1.4,3.1-1.7V3.2z"/>
</g>
</svg>
